<?xml version="1.0" encoding="UTF-8"?>
<!DOCTYPE svg PUBLIC "-//W3C//DTD SVG 1.1//EN" "http://www.w3.org/Graphics/SVG/1.1/DTD/svg11.dtd">
<svg xmlns="http://www.w3.org/2000/svg" version="1.1" width="500px" height="500px" style="shape-rendering:geometricPrecision; text-rendering:geometricPrecision; image-rendering:optimizeQuality; fill-rule:evenodd; clip-rule:evenodd" xmlns:xlink="http://www.w3.org/1999/xlink">
<g><path style="opacity:0.999" fill="#a401f1" d="M 39.5,-0.5 C 179.167,-0.5 318.833,-0.5 458.5,-0.5C 480.5,4.83333 494.167,18.5 499.5,40.5C 499.5,180.167 499.5,319.833 499.5,459.5C 493.723,480.943 480.057,494.277 458.5,499.5C 318.833,499.5 179.167,499.5 39.5,499.5C 18.5,493.833 5.16667,480.5 -0.5,459.5C -0.5,319.833 -0.5,180.167 -0.5,40.5C 4.7321,18.9345 18.0654,5.26785 39.5,-0.5 Z"/></g>
<g><path style="opacity:1" fill="#fefcfe" d="M 249.5,89.5 C 253.92,97.5699 258.253,105.737 262.5,114C 270.319,117.41 277.986,121.077 285.5,125C 277.378,128.561 269.378,132.394 261.5,136.5C 257.399,144.37 253.565,152.37 250,160.5C 245.976,152.287 241.81,144.12 237.5,136C 229.5,132.333 221.5,128.667 213.5,125C 221.378,120.894 229.378,117.061 237.5,113.5C 241.498,105.505 245.498,97.5046 249.5,89.5 Z"/></g>
<g><path style="opacity:1" fill="#fefdfe" d="M 135.5,146.5 C 142.827,148.165 150.16,149.832 157.5,151.5C 140.827,215.857 123.994,280.191 107,344.5C 106.505,346.473 106.338,348.473 106.5,350.5C 141.543,359.344 176.543,368.344 211.5,377.5C 209.835,384.827 208.168,392.16 206.5,399.5C 164.13,388.657 121.797,377.657 79.5,366.5C 79.369,361.022 80.2023,355.689 82,350.5C 100.146,282.566 117.979,214.566 135.5,146.5 Z"/></g>
<g><path style="opacity:1" fill="#fefdfe" d="M 359.5,146.5 C 360.966,147.347 361.8,148.68 362,150.5C 380.844,219.544 399.844,288.544 419,357.5C 419.498,360.482 419.665,363.482 419.5,366.5C 377.506,377.498 335.506,388.498 293.5,399.5C 291.833,392.167 290.167,384.833 288.5,377.5C 323.167,368.5 357.833,359.5 392.5,350.5C 375.389,284.891 357.722,219.391 339.5,154C 339.645,153.228 339.978,152.561 340.5,152C 346.996,150.297 353.329,148.464 359.5,146.5 Z"/></g>
<g><path style="opacity:1" fill="#fefffe" d="M 238.5,181.5 C 245.833,181.5 253.167,181.5 260.5,181.5C 260.5,257.833 260.5,334.167 260.5,410.5C 253.167,410.5 245.833,410.5 238.5,410.5C 238.5,334.167 238.5,257.833 238.5,181.5 Z"/></g>
<g><path style="opacity:1" fill="#fefdfe" d="M 124.5,319.5 C 156.43,327.398 188.097,336.065 219.5,345.5C 217.418,352.075 215.752,358.742 214.5,365.5C 182.181,358.394 150.181,350.06 118.5,340.5C 120.658,333.532 122.658,326.532 124.5,319.5 Z"/></g>
<g><path style="opacity:1" fill="#fefdfe" d="M 369.5,319.5 C 371.451,319.227 372.951,319.893 374,321.5C 376.41,327.931 377.577,334.431 377.5,341C 346.218,349.776 315.052,357.942 284,365.5C 282.266,358.799 280.433,352.133 278.5,345.5C 278.709,344.914 279.043,344.414 279.5,344C 309.705,336.118 339.705,327.951 369.5,319.5 Z"/></g>
</svg>
